PathFileType	4	(X/Y/Z)	S01_0001_Static_markers.trc
DataRate	CameraRate	NumFrames	NumMarkers	Units	OrigDataRate	OrigDataStartFrame	OrigNumFrames
250.000000	250.000000	4	62	mm	250.000000	38	102
Frame#	Time	HEAD_ANT			R_HEAD			L_HEAD			C7			R_BACK			L_BACK			STERNUM			R_ACROMION			R_HUM_PROX			R_HUM_ANT			R_HUM_POST			R_ELBOW_LAT			R_ELBOW_MED			R_FOREARM			R_WIRST_LAT			R_WRITS_MED			R_HAND			L_ACROMION			L_HUM_PROX			L_HUM_ANT			L_HUM_POST			L_ELBOW_LAT			L_ELBOW_MED			L_FOREARM			L_WRIST_LAT			L_WIRST_MED			L_HAND			R_ILIAC			SACRUM			L_ILIAC			R_GTROCH			R_THIGH__1			R_THIGH_2			R_THIGH_3			R_THIGH_4			R_KNEE_LAT			R_KNEE_MED			R_SHANK_1			R_SHANK_2			R_SHANK_3			R_SHANK_4			R_ANKLE_LAT			R_ANKLE_MED			R_HEEL			R_FOOT_LAT			R_FOOT_MED			L_GTROCH			L_THIGH_1			L_THIGH_2			L_THIGH_3			L_THIGH_4			L_KNEE_LAT			L_KNEE_MED			L_SHANK_1			L_SHANK_2			L_SHANK_3			L_SHANK_4			L_ANKLE_LAT			L_ANKLE_MED			L_HEEL			L_FOOT_LAT			L_FOOT_MED			
		X1	Y1	Z1	X2	Y2	Z2	X3	Y3	Z3	X4	Y4	Z4	X5	Y5	Z5	X6	Y6	Z6	X7	Y7	Z7	X8	Y8	Z8	X9	Y9	Z9	X10	Y10	Z10	X11	Y11	Z11	X12	Y12	Z12	X13	Y13	Z13	X14	Y14	Z14	X15	Y15	Z15	X16	Y16	Z16	X17	Y17	Z17	X18	Y18	Z18	X19	Y19	Z19	X20	Y20	Z20	X21	Y21	Z21	X22	Y22	Z22	X23	Y23	Z23	X24	Y24	Z24	X25	Y25	Z25	X26	Y26	Z26	X27	Y27	Z27	X28	Y28	Z28	X29	Y29	Z29	X30	Y30	Z30	X31	Y31	Z31	X32	Y32	Z32	X33	Y33	Z33	X34	Y34	Z34	X35	Y35	Z35	X36	Y36	Z36	X37	Y37	Z37	X38	Y38	Z38	X39	Y39	Z39	X40	Y40	Z40	X41	Y41	Z41	X42	Y42	Z42	X43	Y43	Z43	X44	Y44	Z44	X45	Y45	Z45	X46	Y46	Z46	X47	Y47	Z47	X48	Y48	Z48	X49	Y49	Z49	X50	Y50	Z50	X51	Y51	Z51	X52	Y52	Z52	X53	Y53	Z53	X54	Y54	Z54	X55	Y55	Z55	X56	Y56	Z56	X57	Y57	Z57	X58	Y58	Z58	X59	Y59	Z59	X60	Y60	Z60	X61	Y61	Z61	X62	Y62	Z62	

39	0.152	438.5696411132812	450.8348083496094	1740.302490234375	509.2771606445312	382.8985290527344	1699.177368164062	362.9652404785156	395.4083557128906	1700.713500976562	425.4389038085938	242.7480163574219	1533.9638671875	493.6996459960938	169.8528137207031	1337.083618164062	353.3451232910156	173.7461853027344	1337.914672851562	438.6730651855469	420.8660888671875	1373.90673828125	597.7161254882812	308.4791870117188	1493.539794921875	703.9529418945312	263.9528503417969	1351.460205078125	735.175537109375	328.2852172851562	1274.294921875	721.5620727539062	206.5865020751953	1266.996215820312	758.8071899414062	257.0045166015625	1170.550170898438	679.0531005859375	252.5175323486328	1149.141967773438	828.4434814453125	349.5068969726562	998.1787109375	821.2767333984375	396.6554565429688	931.33056640625	833.2642211914062	320.8276062011719	906.873779296875	881.1090698242188	383.6055908203125	849.2413940429688	264.2486572265625	322.8231201171875	1492.826782226562	163.1214752197266	292.6103210449219	1333.125366210938	148.1106567382812	357.7568664550781	1256.596069335938	142.4782562255859	235.4045257568359	1254.286865234375	114.9094314575195	286.9523315429688	1156.1484375	183.3239440917969	255.7606964111328	1146.600463867188	68.88577270507812	389.8479614257812	985.4706420898438	95.46810913085938	438.2900085449219	919.1826171875	55.05580902099609	371.2739868164062	904.4138793945312	32.94904708862305	442.6827392578125	847.9301147460938	604.595458984375	321.56787109375	1082.05615234375	434.19482421875	188.7965087890625	1061.954345703125	258.925048828125	318.3000183105469	1075.992553710938	613.6200561523438	264.555419921875	942.1868286132812	617.05908203125	272.4559326171875	664.0140991210938	622.7545776367188	330.255859375	674.3424072265625	595.7623291015625	325.6483459472656	570.50048828125	601.5065307617188	261.651611328125	583.4253540039062	589.53369140625	299.4666442871094	508.8880920410156	478.4359436035156	301.7377014160156	506.8177185058594	621.9482421875	238.8815765380859	353.3199768066406	607.7081298828125	294.5251159667969	332.0709838867188	593.71826171875	291.8005676269531	246.6649017333984	603.1424560546875	227.6824493408203	252.8679962158203	581.63916015625	252.9024658203125	65.95962524414062	496.0723571777344	275.0542297363281	80.87313079833984	527.7845458984375	194.1240081787109	41.9211540222168	628.8351440429688	352.2487487792969	19.94365310668945	532.514404296875	415.0060729980469	30.14345550537109	254.1617736816406	271.7271118164062	965.4500732421875	251.4019927978516	323.4530944824219	674.5157470703125	238.5530853271484	271.6418151855469	700.9327392578125	264.7386779785156	248.0365142822266	600.7616577148438	270.7582397460938	311.0539855957031	595.6780395507812	282.7890319824219	268.8669128417969	514.03466796875	390.3297119140625	273.1263427734375	501.5215759277344	255.6200714111328	249.4235687255859	339.0298461914062	257.9333190917969	192.2820434570312	318.10302734375	268.0670471191406	191.8222045898438	231.1811828613281	269.4628295898438	256.2005004882812	236.8165893554688	276.4140930175781	217.2394409179688	69.16849517822266	361.1500244140625	243.4919281005859	79.46582794189453	329.2465209960938	160.9149475097656	41.15296936035156	233.6878509521484	328.0866088867188	19.22705841064453	335.6683349609375	376.7220764160156	27.06665992736816	
40	0.156	438.5672607421875	450.783447265625	1740.326904296875	509.2344360351562	382.7778015136719	1699.202880859375	362.9122314453125	395.3861083984375	1700.704467773438	425.4012451171875	242.7619018554688	1533.9501953125	493.6807861328125	169.9061279296875	1337.056762695312	353.34521484375	173.7438507080078	1337.903442382812	438.6435852050781	420.8584594726562	1373.918579101562	597.6749877929688	308.4866333007812	1493.588012695312	703.9303588867188	263.9847412109375	1351.480712890625	735.1371459960938	328.3448181152344	1274.36669921875	721.5767211914062	206.6544647216797	1267.029907226562	758.8262939453125	257.0703125	1170.565063476562	679.0675048828125	252.5656433105469	1149.1591796875	828.44873046875	349.5538330078125	998.2100830078125	821.2571411132812	396.6959838867188	931.3643188476562	833.2523803710938	320.9028625488281	906.890625	881.1052856445312	383.6874389648438	849.3185424804688	264.2384033203125	322.7970581054688	1492.7978515625	163.1256866455078	292.5721740722656	1333.099609375	148.0524597167969	357.6790161132812	1256.523803710938	142.4783020019531	235.4075469970703	1254.255737304688	114.9396438598633	286.9028930664062	1156.108276367188	183.3090667724609	255.7427673339844	1146.578369140625	68.87275695800781	389.7872009277344	985.4263916015625	95.45869445800781	438.2458801269531	919.14794921875	55.05989837646484	371.2293395996094	904.3831787109375	32.95846176147461	442.6154174804688	847.9091186523438	604.5897216796875	321.5604248046875	1082.055053710938	434.1906433105469	188.8360290527344	1061.933715820312	258.9122314453125	318.468017578125	1075.9599609375	613.6130981445312	264.5495910644531	942.2070922851562	617.0423583984375	272.4676513671875	664.0296630859375	622.7426147460938	330.2467651367188	674.36572265625	595.7855224609375	325.6778869628906	570.507568359375	601.4856567382812	261.6758422851562	583.3878173828125	589.4915771484375	299.4408569335938	508.8685607910156	478.4054260253906	301.8442687988281	506.841552734375	621.9347534179688	238.9349365234375	353.3712158203125	607.6798706054688	294.5482177734375	332.0574035644531	593.728759765625	291.8053894042969	246.6668395996094	603.15234375	227.690185546875	252.8834228515625	581.6406860351562	252.9300994873047	65.94296264648438	496.0992431640625	275.0563049316406	80.90103149414062	527.7711181640625	194.1239166259766	41.92044830322266	628.802734375	352.2358703613281	19.95746994018555	532.5010986328125	415.0660400390625	30.22503280639648	254.1406555175781	271.7910461425781	965.4616088867188	251.3822784423828	323.5063171386719	674.5086669921875	238.5640869140625	271.6390991210938	700.9107666015625	264.7256164550781	248.0200958251953	600.7435302734375	270.7725830078125	311.1478881835938	595.663818359375	282.7828979492188	268.9153137207031	514.0675659179688	390.3060607910156	273.1206665039062	501.4933471679688	255.5910034179688	249.4449920654297	339.0180969238281	257.9159851074219	192.3128509521484	318.1052856445312	268.0750122070312	191.8357543945312	231.1706848144531	269.4971313476562	256.2762451171875	236.7366638183594	276.4259338378906	217.2363739013672	69.19210815429688	361.15771484375	243.4966735839844	79.49489593505859	329.268798828125	160.8804779052734	41.14870071411133	233.7123107910156	328.0662841796875	19.21493339538574	335.6778869628906	376.7181396484375	27.04462623596191	
41	0.16	438.5399475097656	450.7215881347656	1740.353149414062	509.1981506347656	382.71484375	1699.237915039062	362.9008178710938	395.34814453125	1700.765747070312	425.3758544921875	242.7147979736328	1533.941284179688	493.6972961425781	169.9599609375	1337.085205078125	353.349853515625	173.7490997314453	1337.87939453125	438.5977478027344	420.8786010742188	1373.952026367188	597.641845703125	308.5047607421875	1493.60009765625	703.9252319335938	264.0464172363281	1351.5234375	735.1101684570312	328.4078369140625	1274.394897460938	721.5731201171875	206.6543426513672	1267.026977539062	758.8065185546875	257.1287536621094	1170.599975585938	679.0480346679688	252.6278839111328	1149.170776367188	828.4403076171875	349.6009521484375	998.2288818359375	821.2916259765625	396.76806640625	931.4188232421875	833.2741088867188	320.9871826171875	906.9385986328125	881.1170043945312	383.7660522460938	849.3551025390625	264.1691284179688	322.7580871582031	1492.766235351562	163.2957611083984	292.4470825195312	1333.006225585938	148.0098876953125	357.6456298828125	1256.507568359375	142.5121459960938	235.3460388183594	1254.240356445312	114.9347763061523	286.8306579589844	1155.999877929688	183.3433837890625	255.7028198242188	1146.5234375	68.85703277587891	389.7618713378906	985.3927001953125	95.47145080566406	438.1953125	919.0382690429688	55.06493759155273	371.1922302246094	904.33203125	32.95943069458008	442.5946655273438	847.8714599609375	604.5933837890625	321.5664367675781	1082.056030273438	434.1400451660156	188.908447265625	1061.958862304688	258.90771484375	318.4852294921875	1075.980590820312	613.5913696289062	264.5527648925781	942.2098999023438	617.0494995117188	272.4573974609375	664.0352172851562	622.7564086914062	330.2569580078125	674.3438110351562	595.7760009765625	325.6716613769531	570.5018920898438	601.488037109375	261.7027282714844	583.4265747070312	589.5006713867188	299.4678955078125	508.8752746582031	478.3491821289062	301.8497924804688	506.8082275390625	621.92578125	238.9407501220703	353.3805847167969	607.6737670898438	294.5483093261719	332.0562438964844	593.6908569335938	291.810791015625	246.6604766845703	603.1642456054688	227.656982421875	252.9602966308594	581.6386108398438	252.9230804443359	65.92330169677734	496.0979309082031	275.0872192382812	80.87626647949219	527.7673950195312	194.1417846679688	41.90845108032227	628.79443359375	352.242919921875	19.9652099609375	532.5134887695312	415.0255126953125	30.16731262207031	254.1354064941406	271.858154296875	965.4481201171875	251.4287414550781	323.5285949707031	674.4854125976562	238.5547180175781	271.7159729003906	700.93505859375	264.6980285644531	248.0737762451172	600.78125	270.7733154296875	311.154541015625	595.7041625976562	282.7812805175781	268.9162292480469	514.0664672851562	390.2950744628906	273.065185546875	501.5375061035156	255.6210327148438	249.4691925048828	338.9923095703125	257.9013977050781	192.33251953125	318.0897827148438	268.0567932128906	191.8517761230469	231.1646575927734	269.4387817382812	256.2544860839844	236.8341827392578	276.426513671875	217.20947265625	69.21148681640625	361.1460266113281	243.5207214355469	79.48741149902344	329.260498046875	160.8985443115234	41.15517044067383	233.7130584716797	328.0989685058594	19.23557281494141	335.7007141113281	376.7098083496094	27.04464721679688	
42	0.164	438.4778442382812	450.6464233398438	1740.3916015625	509.1600036621094	382.7100830078125	1699.293090820312	362.8372192382812	395.3430786132812	1700.76611328125	425.3365173339844	242.7187805175781	1533.900146484375	493.6702575683594	169.9021606445312	1337.047973632812	353.3477172851562	173.7256011962891	1337.86572265625	438.6072692871094	420.8749084472656	1373.974365234375	597.61669921875	308.5065307617188	1493.619384765625	703.9012451171875	264.0133056640625	1351.562255859375	735.106689453125	328.4275207519531	1274.4287109375	721.5690307617188	206.7078857421875	1267.0888671875	758.8087768554688	257.2035522460938	1170.682983398438	679.051025390625	252.6790008544922	1149.229858398438	828.4645385742188	349.686767578125	998.2711791992188	821.2815551757812	396.8273620605469	931.4715576171875	833.2904663085938	321.0326538085938	906.9937133789062	881.1372680664062	383.8361206054688	849.402099609375	264.149658203125	322.71435546875	1492.75732421875	163.0785827636719	292.5177001953125	1333.029907226562	147.9835357666016	357.6175537109375	1256.478515625	142.53466796875	235.3335723876953	1254.194213867188	114.9213409423828	286.8053283691406	1155.949829101562	183.34130859375	255.7021179199219	1146.509521484375	68.87306213378906	389.7428283691406	985.3508911132812	95.44333648681641	438.18310546875	919.015625	55.07729339599609	371.1334838867188	904.273193359375	32.94697952270508	442.5566101074219	847.8295288085938	604.5877685546875	321.5631103515625	1082.0556640625	434.0978393554688	188.9211120605469	1061.90087890625	258.8878784179688	318.5625	1075.969116210938	613.5550537109375	264.5727844238281	942.1860961914062	617.0196533203125	272.4547424316406	664.0131225585938	622.73486328125	330.2493591308594	674.36279296875	595.7658081054688	325.6786804199219	570.49658203125	601.45361328125	261.7008666992188	583.39013671875	589.4674072265625	299.5070495605469	508.8863830566406	478.4022216796875	301.8095397949219	506.7584533691406	621.9138793945312	238.9244995117188	353.3781433105469	607.6803588867188	294.5828857421875	332.0473022460938	593.6980590820312	291.8361511230469	246.6583251953125	603.1192016601562	227.6799011230469	252.8642883300781	581.6073608398438	252.9181976318359	65.93712615966797	496.1161193847656	275.1056518554688	80.86664581298828	527.7621459960938	194.1308135986328	41.93188095092773	628.8108520507812	352.2456665039062	19.94971466064453	532.4763793945312	415.0311584472656	30.14196395874023	254.1189117431641	271.8835144042969	965.4440307617188	251.3760223388672	323.58740234375	674.492431640625	238.5243225097656	271.7802124023438	700.9244384765625	264.7027587890625	248.0960083007812	600.75927734375	270.7911682128906	311.2057495117188	595.6712036132812	282.7638854980469	268.9105224609375	514.00244140625	390.3063049316406	273.1784057617188	501.5295715332031	255.5881500244141	249.4896697998047	339.0188903808594	257.9087829589844	192.330078125	318.0980529785156	268.0543823242188	191.8740081787109	231.1707611083984	269.4754333496094	256.3106079101562	236.7411346435547	276.3958740234375	217.2193908691406	69.18855285644531	361.1285705566406	243.4822692871094	79.49740600585938	329.250732421875	160.9006042480469	41.14702606201172	233.6942138671875	328.0740661621094	19.23649024963379	335.6749267578125	376.7264099121094	27.03781127929688	
